<svg width="1200" height="760" viewBox="0 0 1200 760" fill="none" xmlns="http://www.w3.org/2000/svg">
<rect width="1200" height="760" rx="40" fill="url(#paint0_linear)"/>
<circle cx="1018" cy="108" r="168" fill="url(#paint1_radial)" fill-opacity="0.55"/>
<circle cx="162" cy="134" r="112" fill="url(#paint2_radial)" fill-opacity="0.85"/>
<rect x="90" y="92" width="1020" height="576" rx="38" fill="rgba(255,255,255,0.11)"/>
<rect x="128" y="132" width="944" height="82" rx="24" fill="rgba(255,255,255,0.88)"/>
<rect x="162" y="164" width="174" height="18" rx="9" fill="#183A68" fill-opacity="0.12"/>
<rect x="162" y="250" width="286" height="352" rx="30" fill="#10213E" fill-opacity="0.9"/>
<rect x="476" y="250" width="270" height="162" rx="30" fill="rgba(255,255,255,0.92)"/>
<rect x="476" y="440" width="270" height="162" rx="30" fill="rgba(255,255,255,0.92)"/>
<rect x="778" y="250" width="258" height="352" rx="30" fill="rgba(255,255,255,0.92)"/>
<path d="M188 520L240 474L286 498L336 428L390 374" stroke="#60A5FA" stroke-width="18" stroke-linecap="round" stroke-linejoin="round"/>
<circle cx="390" cy="374" r="16" fill="#BFDBFE"/>
<rect x="188" y="560" width="200" height="18" rx="9" fill="white" fill-opacity="0.14"/>
<rect x="510" y="284" width="170" height="18" rx="9" fill="#183A68" fill-opacity="0.12"/>
<rect x="510" y="324" width="78" height="78" rx="22" fill="#2563EB"/>
<rect x="604" y="324" width="108" height="78" rx="22" fill="#E6F0FF"/>
<rect x="510" y="474" width="184" height="18" rx="9" fill="#183A68" fill-opacity="0.12"/>
<rect x="510" y="516" width="146" height="18" rx="9" fill="#183A68" fill-opacity="0.08"/>
<path d="M822 528L854 486L890 506L930 450L992 386" stroke="#2563EB" stroke-width="16" stroke-linecap="round" stroke-linejoin="round"/>
<circle cx="992" cy="386" r="18" fill="#BFD7FF"/>
<rect x="822" y="564" width="118" height="18" rx="9" fill="#183A68" fill-opacity="0.12"/>
<defs>
<linearGradient id="paint0_linear" x1="84" y1="60" x2="1118" y2="698" gradientUnits="userSpaceOnUse">
<stop stop-color="#1D5BCC"/>
<stop offset="0.48" stop-color="#6382B1"/>
<stop offset="1" stop-color="#DDE6F1"/>
</linearGradient>
<radialGradient id="paint1_radial" cx="0" cy="0" r="1" gradientUnits="userSpaceOnUse" gradientTransform="translate(1018 108) rotate(90) scale(168)">
<stop stop-color="white"/>
<stop offset="1" stop-color="white" stop-opacity="0"/>
</radialGradient>
<radialGradient id="paint2_radial" cx="0" cy="0" r="1" gradientUnits="userSpaceOnUse" gradientTransform="translate(162 134) rotate(90) scale(112)">
<stop stop-color="#C6DBFF"/>
<stop offset="1" stop-color="#C6DBFF" stop-opacity="0"/>
</radialGradient>
</defs>
</svg>
